{
    "asset" : {
        "generator" : "Khronos glTF Blender I/O v1.6.16",
        "version" : "2.0"
    },
    "scene" : 0,
    "scenes" : [
        {
            "name" : "Scene",
            "nodes" : [
                0,
                1,
                2,
                3,
                4,
                5,
                6
            ]
        }
    ],
    "nodes" : [
        {
            "mesh" : 0,
            "name" : "Cube"
        },
        {
            "mesh" : 1,
            "name" : "Cube.001"
        },
        {
            "mesh" : 2,
            "name" : "Cube.003"
        },
        {
            "mesh" : 3,
            "name" : "Cube.004"
        },
        {
            "mesh" : 4,
            "name" : "Cube.005"
        },
        {
            "mesh" : 5,
            "name" : "Cube.010"
        },
        {
            "mesh" : 6,
            "name" : "Cube.014"
        }
    ],
    "materials" : [
        {
            "doubleSided" : true,
            "name" : "Material",
            "normalTexture" : {
                "index" : 0
            },
            "pbrMetallicRoughness" : {
                "baseColorTexture" : {
                    "index" : 1
                },
                "metallicFactor" : 0,
                "metallicRoughnessTexture" : {
                    "index" : 2
                }
            }
        },
        {
            "doubleSided" : true,
            "name" : "Material.001",
            "normalTexture" : {
                "index" : 3
            },
            "pbrMetallicRoughness" : {
                "baseColorTexture" : {
                    "index" : 4
                },
                "metallicFactor" : 0,
                "metallicRoughnessTexture" : {
                    "index" : 5
                }
            }
        }
    ],
    "meshes" : [
        {
            "name" : "Cube",
            "primitives" : [
                {
                    "attributes" : {
                        "POSITION" : 0,
                        "NORMAL" : 1,
                        "TEXCOORD_0" : 2,
                        "TEXCOORD_1" : 3
                    },
                    "indices" : 4,
                    "material" : 0
                }
            ]
        },
        {
            "name" : "Cube.001",
            "primitives" : [
                {
                    "attributes" : {
                        "POSITION" : 5,
                        "NORMAL" : 6,
                        "TEXCOORD_0" : 7,
                        "TEXCOORD_1" : 8
                    },
                    "indices" : 4,
                    "material" : 0
                }
            ]
        },
        {
            "name" : "Cube.003",
            "primitives" : [
                {
                    "attributes" : {
                        "POSITION" : 9,
                        "NORMAL" : 10,
                        "TEXCOORD_0" : 11,
                        "TEXCOORD_1" : 12
                    },
                    "indices" : 13,
                    "material" : 0
                }
            ]
        },
        {
            "name" : "Cube.004",
            "primitives" : [
                {
                    "attributes" : {
                        "POSITION" : 14,
                        "NORMAL" : 15,
                        "TEXCOORD_0" : 16,
                        "TEXCOORD_1" : 17
                    },
                    "indices" : 18,
                    "material" : 0
                }
            ]
        },
        {
            "name" : "Cube.005",
            "primitives" : [
                {
                    "attributes" : {
                        "POSITION" : 19,
                        "NORMAL" : 20,
                        "TEXCOORD_0" : 21,
                        "TEXCOORD_1" : 22
                    },
                    "indices" : 18,
                    "material" : 0
                }
            ]
        },
        {
            "name" : "Cube.011",
            "primitives" : [
                {
                    "attributes" : {
                        "POSITION" : 23,
                        "NORMAL" : 24,
                        "TEXCOORD_0" : 25
                    },
                    "indices" : 26,
                    "material" : 1
                }
            ]
        },
        {
            "name" : "Cube.015",
            "primitives" : [
                {
                    "attributes" : {
                        "POSITION" : 27,
                        "NORMAL" : 28,
                        "TEXCOORD_0" : 29
                    },
                    "indices" : 26,
                    "material" : 1
                }
            ]
        }
    ],
    "textures" : [
        {
            "sampler" : 0,
            "source" : 0
        },
        {
            "sampler" : 0,
            "source" : 1
        },
        {
            "sampler" : 0,
            "source" : 2
        },
        {
            "sampler" : 0,
            "source" : 0
        },
        {
            "sampler" : 0,
            "source" : 1
        },
        {
            "sampler" : 0,
            "source" : 2
        }
    ],
    "images" : [
        {
            "mimeType" : "image/jpeg",
            "name" : "Wood063_1K_Normal",
            "uri" : "Textures/Wood063_1K_Normal.jpg"
        },
        {
            "mimeType" : "image/jpeg",
            "name" : "Wood063_1K_Color",
            "uri" : "Textures/Wood063_1K_Color.jpg"
        },
        {
            "mimeType" : "image/png",
            "name" : "Wood063_1K_Roughness",
            "uri" : "Textures/Wood063_1K_Roughness.png"
        }
    ],
    "accessors" : [
        {
            "bufferView" : 0,
            "componentType" : 5126,
            "count" : 96,
            "max" : [
                1.2570801973342896,
                1.547346591949463,
                -0.9324142932891846
            ],
            "min" : [
                -1.2570801973342896,
                -0.21196529269218445,
                -1.0699763298034668
            ],
            "type" : "VEC3"
        },
        {
            "bufferView" : 1,
            "componentType" : 5126,
            "count" : 96,
            "type" : "VEC3"
        },
        {
            "bufferView" : 2,
            "componentType" : 5126,
            "count" : 96,
            "type" : "VEC2"
        },
        {
            "bufferView" : 3,
            "componentType" : 5126,
            "count" : 96,
            "type" : "VEC2"
        },
        {
            "bufferView" : 4,
            "componentType" : 5123,
            "count" : 144,
            "type" : "SCALAR"
        },
        {
            "bufferView" : 5,
            "componentType" : 5126,
            "count" : 96,
            "max" : [
                1.2570801973342896,
                1.547346591949463,
                0.7740414142608643
            ],
            "min" : [
                -1.2570801973342896,
                -0.21196529269218445,
                0.6364794373512268
            ],
            "type" : "VEC3"
        },
        {
            "bufferView" : 6,
            "componentType" : 5126,
            "count" : 96,
            "type" : "VEC3"
        },
        {
            "bufferView" : 7,
            "componentType" : 5126,
            "count" : 96,
            "type" : "VEC2"
        },
        {
            "bufferView" : 8,
            "componentType" : 5126,
            "count" : 96,
            "type" : "VEC2"
        },
        {
            "bufferView" : 9,
            "componentType" : 5126,
            "count" : 96,
            "max" : [
                1.2570801973342896,
                -0.20788857340812683,
                0.7725282907485962
            ],
            "min" : [
                -1.2570801973342896,
                -0.33840012550354004,
                -1.0818324089050293
            ],
            "type" : "VEC3"
        },
        {
            "bufferView" : 10,
            "componentType" : 5126,
            "count" : 96,
            "type" : "VEC3"
        },
        {
            "bufferView" : 11,
            "componentType" : 5126,
            "count" : 96,
            "type" : "VEC2"
        },
        {
            "bufferView" : 12,
            "componentType" : 5126,
            "count" : 96,
            "type" : "VEC2"
        },
        {
            "bufferView" : 13,
            "componentType" : 5123,
            "count" : 144,
            "type" : "SCALAR"
        },
        {
            "bufferView" : 14,
            "componentType" : 5126,
            "count" : 96,
            "max" : [
                -1.127820611000061,
                1.547346591949463,
                0.7655200958251953
            ],
            "min" : [
                -1.2583316564559937,
                -0.21196529269218445,
                -1.069364309310913
            ],
            "type" : "VEC3"
        },
        {
            "bufferView" : 15,
            "componentType" : 5126,
            "count" : 96,
            "type" : "VEC3"
        },
        {
            "bufferView" : 16,
            "componentType" : 5126,
            "count" : 96,
            "type" : "VEC2"
        },
        {
            "bufferView" : 17,
            "componentType" : 5126,
            "count" : 96,
            "type" : "VEC2"
        },
        {
            "bufferView" : 18,
            "componentType" : 5123,
            "count" : 144,
            "type" : "SCALAR"
        },
        {
            "bufferView" : 19,
            "componentType" : 5126,
            "count" : 96,
            "max" : [
                1.258460521697998,
                1.547346591949463,
                0.7655200958251953
            ],
            "min" : [
                1.1279494762420654,
                -0.21196529269218445,
                -1.069364309310913
            ],
            "type" : "VEC3"
        },
        {
            "bufferView" : 20,
            "componentType" : 5126,
            "count" : 96,
            "type" : "VEC3"
        },
        {
            "bufferView" : 21,
            "componentType" : 5126,
            "count" : 96,
            "type" : "VEC2"
        },
        {
            "bufferView" : 22,
            "componentType" : 5126,
            "count" : 96,
            "type" : "VEC2"
        },
        {
            "bufferView" : 23,
            "componentType" : 5126,
            "count" : 96,
            "max" : [
                -1.2008652687072754,
                1.6568360328674316,
                0.7627437114715576
            ],
            "min" : [
                -1.3186166286468506,
                -0.34316420555114746,
                -1.067618489265442
            ],
            "type" : "VEC3"
        },
        {
            "bufferView" : 24,
            "componentType" : 5126,
            "count" : 96,
            "type" : "VEC3"
        },
        {
            "bufferView" : 25,
            "componentType" : 5126,
            "count" : 96,
            "type" : "VEC2"
        },
        {
            "bufferView" : 26,
            "componentType" : 5123,
            "count" : 144,
            "type" : "SCALAR"
        },
        {
            "bufferView" : 27,
            "componentType" : 5126,
            "count" : 96,
            "max" : [
                1.3183083534240723,
                1.6568360328674316,
                0.7627437114715576
            ],
            "min" : [
                1.2005568742752075,
                -0.34316420555114746,
                -1.067618489265442
            ],
            "type" : "VEC3"
        },
        {
            "bufferView" : 28,
            "componentType" : 5126,
            "count" : 96,
            "type" : "VEC3"
        },
        {
            "bufferView" : 29,
            "componentType" : 5126,
            "count" : 96,
            "type" : "VEC2"
        }
    ],
    "bufferViews" : [
        {
            "buffer" : 0,
            "byteLength" : 1152,
            "byteOffset" : 0
        },
        {
            "buffer" : 0,
            "byteLength" : 1152,
            "byteOffset" : 1152
        },
        {
            "buffer" : 0,
            "byteLength" : 768,
            "byteOffset" : 2304
        },
        {
            "buffer" : 0,
            "byteLength" : 768,
            "byteOffset" : 3072
        },
        {
            "buffer" : 0,
            "byteLength" : 288,
            "byteOffset" : 3840
        },
        {
            "buffer" : 0,
            "byteLength" : 1152,
            "byteOffset" : 4128
        },
        {
            "buffer" : 0,
            "byteLength" : 1152,
            "byteOffset" : 5280
        },
        {
            "buffer" : 0,
            "byteLength" : 768,
            "byteOffset" : 6432
        },
        {
            "buffer" : 0,
            "byteLength" : 768,
            "byteOffset" : 7200
        },
        {
            "buffer" : 0,
            "byteLength" : 1152,
            "byteOffset" : 7968
        },
        {
            "buffer" : 0,
            "byteLength" : 1152,
            "byteOffset" : 9120
        },
        {
            "buffer" : 0,
            "byteLength" : 768,
            "byteOffset" : 10272
        },
        {
            "buffer" : 0,
            "byteLength" : 768,
            "byteOffset" : 11040
        },
        {
            "buffer" : 0,
            "byteLength" : 288,
            "byteOffset" : 11808
        },
        {
            "buffer" : 0,
            "byteLength" : 1152,
            "byteOffset" : 12096
        },
        {
            "buffer" : 0,
            "byteLength" : 1152,
            "byteOffset" : 13248
        },
        {
            "buffer" : 0,
            "byteLength" : 768,
            "byteOffset" : 14400
        },
        {
            "buffer" : 0,
            "byteLength" : 768,
            "byteOffset" : 15168
        },
        {
            "buffer" : 0,
            "byteLength" : 288,
            "byteOffset" : 15936
        },
        {
            "buffer" : 0,
            "byteLength" : 1152,
            "byteOffset" : 16224
        },
        {
            "buffer" : 0,
            "byteLength" : 1152,
            "byteOffset" : 17376
        },
        {
            "buffer" : 0,
            "byteLength" : 768,
            "byteOffset" : 18528
        },
        {
            "buffer" : 0,
            "byteLength" : 768,
            "byteOffset" : 19296
        },
        {
            "buffer" : 0,
            "byteLength" : 1152,
            "byteOffset" : 20064
        },
        {
            "buffer" : 0,
            "byteLength" : 1152,
            "byteOffset" : 21216
        },
        {
            "buffer" : 0,
            "byteLength" : 768,
            "byteOffset" : 22368
        },
        {
            "buffer" : 0,
            "byteLength" : 288,
            "byteOffset" : 23136
        },
        {
            "buffer" : 0,
            "byteLength" : 1152,
            "byteOffset" : 23424
        },
        {
            "buffer" : 0,
            "byteLength" : 1152,
            "byteOffset" : 24576
        },
        {
            "buffer" : 0,
            "byteLength" : 768,
            "byteOffset" : 25728
        }
    ],
    "samplers" : [
        {
            "magFilter" : 9729,
            "minFilter" : 9987
        }
    ],
    "buffers" : [
        {
            "byteLength" : 26496,
            "uri" : "wooden crate.bin"
        }
    ]
}
